<mxfile host="65bd71144e">
    <diagram id="vYY0wZgh9Mw6Mro5w5tX" name="Page-1">
        <mxGraphModel dx="1929" dy="1923" grid="1" gridSize="10" guides="1" tooltips="1" connect="1" arrows="1" fold="1" page="1" pageScale="1" pageWidth="827" pageHeight="1169" math="0" shadow="0">
            <root>
                <mxCell id="0"/>
                <mxCell id="1" parent="0"/>
                <mxCell id="Fw4iVVHJRfLlpQ4vOzXV-48" style="edgeStyle=orthogonalEdgeStyle;rounded=0;orthogonalLoop=1;jettySize=auto;html=1;exitX=0.5;exitY=0;exitDx=0;exitDy=0;entryX=0;entryY=0.25;entryDx=0;entryDy=0;" parent="1" source="Fw4iVVHJRfLlpQ4vOzXV-3" target="Fw4iVVHJRfLlpQ4vOzXV-21" edge="1">
                    <mxGeometry relative="1" as="geometry"/>
                </mxCell>
                <mxCell id="Fw4iVVHJRfLlpQ4vOzXV-3" value="dim_planning" style="swimlane;childLayout=stackLayout;horizontal=1;startSize=30;horizontalStack=0;rounded=1;fontSize=14;fontStyle=0;strokeWidth=2;resizeParent=0;resizeLast=1;shadow=0;dashed=0;align=center;fillColor=#f8cecc;strokeColor=#b85450;" parent="1" vertex="1">
                    <mxGeometry x="-220" y="220" width="160" height="130" as="geometry"/>
                </mxCell>
                <mxCell id="Fw4iVVHJRfLlpQ4vOzXV-4" value="-planningID&#10;-airlineCode&#10;-destCode&#10;-planTerminal&#10;-planGate&#10;-planTijd" style="align=left;strokeColor=none;fillColor=none;spacingLeft=4;fontSize=12;verticalAlign=top;resizable=0;rotatable=0;part=1;" parent="Fw4iVVHJRfLlpQ4vOzXV-3" vertex="1">
                    <mxGeometry y="30" width="160" height="100" as="geometry"/>
                </mxCell>
                <mxCell id="Fw4iVVHJRfLlpQ4vOzXV-44" style="edgeStyle=orthogonalEdgeStyle;rounded=0;orthogonalLoop=1;jettySize=auto;html=1;exitX=0.5;exitY=0;exitDx=0;exitDy=0;entryX=-0.002;entryY=0.152;entryDx=0;entryDy=0;entryPerimeter=0;" parent="1" source="Fw4iVVHJRfLlpQ4vOzXV-5" target="Fw4iVVHJRfLlpQ4vOzXV-21" edge="1">
                    <mxGeometry relative="1" as="geometry"/>
                </mxCell>
                <mxCell id="Fw4iVVHJRfLlpQ4vOzXV-5" value="dim_banen" style="swimlane;childLayout=stackLayout;horizontal=1;startSize=30;horizontalStack=0;rounded=1;fontSize=14;fontStyle=0;strokeWidth=2;resizeParent=0;resizeLast=1;shadow=0;dashed=0;align=center;fillColor=#f8cecc;strokeColor=#b85450;" parent="1" vertex="1">
                    <mxGeometry x="-400" y="220" width="160" height="130" as="geometry"/>
                </mxCell>
                <mxCell id="Fw4iVVHJRfLlpQ4vOzXV-6" value="-baanNr&#10;-code&#10;-naam&#10;-lengte" style="align=left;strokeColor=none;fillColor=none;spacingLeft=4;fontSize=12;verticalAlign=top;resizable=0;rotatable=0;part=1;" parent="Fw4iVVHJRfLlpQ4vOzXV-5" vertex="1">
                    <mxGeometry y="30" width="160" height="100" as="geometry"/>
                </mxCell>
                <mxCell id="Fw4iVVHJRfLlpQ4vOzXV-46" style="edgeStyle=orthogonalEdgeStyle;rounded=0;orthogonalLoop=1;jettySize=auto;html=1;exitX=0.5;exitY=0;exitDx=0;exitDy=0;" parent="1" source="Fw4iVVHJRfLlpQ4vOzXV-7" target="Fw4iVVHJRfLlpQ4vOzXV-21" edge="1">
                    <mxGeometry relative="1" as="geometry"/>
                </mxCell>
                <mxCell id="Fw4iVVHJRfLlpQ4vOzXV-7" value="dim_luchthaven" style="swimlane;childLayout=stackLayout;horizontal=1;startSize=30;horizontalStack=0;rounded=1;fontSize=14;fontStyle=0;strokeWidth=2;resizeParent=0;resizeLast=1;shadow=0;dashed=0;align=center;fillColor=#f8cecc;strokeColor=#b85450;" parent="1" vertex="1">
                    <mxGeometry x="140" y="205" width="160" height="160" as="geometry"/>
                </mxCell>
                <mxCell id="Fw4iVVHJRfLlpQ4vOzXV-8" value="-luchthavenId&#10;-naam&#10;-city&#10;-country&#10;-IATA&#10;-ICAO&#10;-TZ&#10;-timeZone" style="align=left;strokeColor=none;fillColor=none;spacingLeft=4;fontSize=12;verticalAlign=top;resizable=0;rotatable=0;part=1;" parent="Fw4iVVHJRfLlpQ4vOzXV-7" vertex="1">
                    <mxGeometry y="30" width="160" height="130" as="geometry"/>
                </mxCell>
                <mxCell id="Fw4iVVHJRfLlpQ4vOzXV-50" style="edgeStyle=orthogonalEdgeStyle;rounded=0;orthogonalLoop=1;jettySize=auto;html=1;exitX=0.5;exitY=0;exitDx=0;exitDy=0;entryX=1;entryY=0.385;entryDx=0;entryDy=0;entryPerimeter=0;" parent="1" source="Fw4iVVHJRfLlpQ4vOzXV-9" target="Fw4iVVHJRfLlpQ4vOzXV-21" edge="1">
                    <mxGeometry relative="1" as="geometry"/>
                </mxCell>
                <mxCell id="Fw4iVVHJRfLlpQ4vOzXV-9" value="dim_vliegtuig" style="swimlane;childLayout=stackLayout;horizontal=1;startSize=30;horizontalStack=0;rounded=1;fontSize=14;fontStyle=0;strokeWidth=2;resizeParent=0;resizeLast=1;shadow=0;dashed=0;align=center;fillColor=#f8cecc;strokeColor=#b85450;" parent="1" vertex="1">
                    <mxGeometry x="320" y="220" width="160" height="130" as="geometry"/>
                </mxCell>
                <mxCell id="Fw4iVVHJRfLlpQ4vOzXV-10" value="-vliegtuigID&#10;-airlineCode&#10;-vliegtuigCode&#10;-vliegtuigTypeID&#10;-bouwJaar" style="align=left;strokeColor=none;fillColor=none;spacingLeft=4;fontSize=12;verticalAlign=top;resizable=0;rotatable=0;part=1;" parent="Fw4iVVHJRfLlpQ4vOzXV-9" vertex="1">
                    <mxGeometry y="30" width="160" height="100" as="geometry"/>
                </mxCell>
                <mxCell id="4" style="edgeStyle=none;html=1;exitX=0.5;exitY=0;exitDx=0;exitDy=0;entryX=0.5;entryY=1;entryDx=0;entryDy=0;" parent="1" source="Fw4iVVHJRfLlpQ4vOzXV-11" target="Fw4iVVHJRfLlpQ4vOzXV-10" edge="1">
                    <mxGeometry relative="1" as="geometry"/>
                </mxCell>
                <mxCell id="Fw4iVVHJRfLlpQ4vOzXV-11" value="dim_vliegtuigtype" style="swimlane;childLayout=stackLayout;horizontal=1;startSize=30;horizontalStack=0;rounded=1;fontSize=14;fontStyle=0;strokeWidth=2;resizeParent=0;resizeLast=1;shadow=0;dashed=0;align=center;fillColor=#f8cecc;strokeColor=#b85450;" parent="1" vertex="1">
                    <mxGeometry x="320" y="380" width="160" height="170" as="geometry"/>
                </mxCell>
                <mxCell id="Fw4iVVHJRfLlpQ4vOzXV-12" value="-vliegtuigTypeID&#10;-merk&#10;-type&#10;-wake&#10;-cat&#10;-capaciteit&#10;-vracht&#10;-IATA&#10;-ICAO" style="align=left;strokeColor=none;fillColor=none;spacingLeft=4;fontSize=12;verticalAlign=top;resizable=0;rotatable=0;part=1;" parent="Fw4iVVHJRfLlpQ4vOzXV-11" vertex="1">
                    <mxGeometry y="30" width="160" height="140" as="geometry"/>
                </mxCell>
                <mxCell id="Fw4iVVHJRfLlpQ4vOzXV-49" style="edgeStyle=orthogonalEdgeStyle;rounded=0;orthogonalLoop=1;jettySize=auto;html=1;exitX=0.5;exitY=0;exitDx=0;exitDy=0;entryX=1;entryY=0.25;entryDx=0;entryDy=0;" parent="1" source="Fw4iVVHJRfLlpQ4vOzXV-14" target="Fw4iVVHJRfLlpQ4vOzXV-21" edge="1">
                    <mxGeometry relative="1" as="geometry"/>
                </mxCell>
                <mxCell id="Fw4iVVHJRfLlpQ4vOzXV-14" value="dim_maatschappijen" style="swimlane;childLayout=stackLayout;horizontal=1;startSize=30;horizontalStack=0;rounded=1;fontSize=14;fontStyle=0;strokeWidth=2;resizeParent=0;resizeLast=1;shadow=0;dashed=0;align=center;fillColor=#f8cecc;strokeColor=#b85450;" parent="1" vertex="1">
                    <mxGeometry x="500" y="220" width="160" height="130" as="geometry"/>
                </mxCell>
                <mxCell id="Fw4iVVHJRfLlpQ4vOzXV-15" value="-maatschappijID&#10;-naam&#10;-IATA&#10;-ICAO" style="align=left;strokeColor=none;fillColor=none;spacingLeft=4;fontSize=12;verticalAlign=top;resizable=0;rotatable=0;part=1;" parent="Fw4iVVHJRfLlpQ4vOzXV-14" vertex="1">
                    <mxGeometry y="30" width="160" height="100" as="geometry"/>
                </mxCell>
                <mxCell id="Fw4iVVHJRfLlpQ4vOzXV-45" style="edgeStyle=orthogonalEdgeStyle;rounded=0;orthogonalLoop=1;jettySize=auto;html=1;exitX=0.5;exitY=0;exitDx=0;exitDy=0;entryX=0.998;entryY=0.152;entryDx=0;entryDy=0;entryPerimeter=0;" parent="1" source="Fw4iVVHJRfLlpQ4vOzXV-16" target="Fw4iVVHJRfLlpQ4vOzXV-21" edge="1">
                    <mxGeometry relative="1" as="geometry"/>
                </mxCell>
                <mxCell id="Fw4iVVHJRfLlpQ4vOzXV-16" value="dim_weer" style="swimlane;childLayout=stackLayout;horizontal=1;startSize=30;horizontalStack=0;rounded=1;fontSize=14;fontStyle=0;strokeWidth=2;resizeParent=0;resizeLast=1;shadow=0;dashed=0;align=center;fillColor=#f8cecc;strokeColor=#b85450;" parent="1" vertex="1">
                    <mxGeometry x="680" y="207.5" width="160" height="155" as="geometry"/>
                </mxCell>
                <mxCell id="Fw4iVVHJRfLlpQ4vOzXV-17" value="-weerID&#10;-dateID&#10;-windsnelheid&#10;-temperatuur&#10;-zonneschijnduur&#10;-neerslagduur&#10;-zicht&#10;-bewolking" style="align=left;strokeColor=none;fillColor=none;spacingLeft=4;fontSize=12;verticalAlign=top;resizable=0;rotatable=0;part=1;" parent="Fw4iVVHJRfLlpQ4vOzXV-16" vertex="1">
                    <mxGeometry y="30" width="160" height="125" as="geometry"/>
                </mxCell>
                <mxCell id="Fw4iVVHJRfLlpQ4vOzXV-18" value="fact_vertrek" style="swimlane;childLayout=stackLayout;horizontal=1;startSize=30;horizontalStack=0;rounded=1;fontSize=14;fontStyle=0;strokeWidth=2;resizeParent=0;resizeLast=1;shadow=0;dashed=0;align=center;fillColor=#dae8fc;strokeColor=#6c8ebf;" parent="1" vertex="1">
                    <mxGeometry x="140" y="400" width="160" height="290" as="geometry"/>
                </mxCell>
                <mxCell id="Fw4iVVHJRfLlpQ4vOzXV-19" value="-vluchtID&#10;-planningID&#10;-luchthavenID&#10;-weerID&#10;-maatschappijID&#10;-vliegtuigID&#10;-vliegtuigTypeID&#10;-baanNr&#10;-vluchtNr&#10;-terminal&#10;-gate&#10;-bezetting&#10;-vracht&#10;-vertrektijd&#10;-ratingID&#10;-datum&#10;-vertraging" style="align=left;strokeColor=none;fillColor=none;spacingLeft=4;fontSize=12;verticalAlign=top;resizable=0;rotatable=0;part=1;" parent="Fw4iVVHJRfLlpQ4vOzXV-18" vertex="1">
                    <mxGeometry y="30" width="160" height="260" as="geometry"/>
                </mxCell>
                <mxCell id="Fw4iVVHJRfLlpQ4vOzXV-20" value="fact_aankomst" style="swimlane;childLayout=stackLayout;horizontal=1;startSize=30;horizontalStack=0;rounded=1;fontSize=14;fontStyle=0;strokeWidth=2;resizeParent=0;resizeLast=1;shadow=0;dashed=0;align=center;fillColor=#dae8fc;strokeColor=#6c8ebf;" parent="1" vertex="1">
                    <mxGeometry x="140" y="-130" width="160" height="290" as="geometry"/>
                </mxCell>
                <mxCell id="Fw4iVVHJRfLlpQ4vOzXV-21" value="-vluchtID&#10;-planningID&#10;-luchthavenID&#10;-weerID&#10;-maatschappijID&#10;-vliegtuigID&#10;-vliegtuigTypeID&#10;-baanNr&#10;-vluchtNr&#10;-terminal&#10;-gate&#10;-bezetting&#10;-vracht&#10;-vertrektijd&#10;-datum&#10;-vertraging" style="align=left;strokeColor=none;fillColor=none;spacingLeft=4;fontSize=12;verticalAlign=top;resizable=0;rotatable=0;part=1;" parent="Fw4iVVHJRfLlpQ4vOzXV-20" vertex="1">
                    <mxGeometry y="30" width="160" height="260" as="geometry"/>
                </mxCell>
                <mxCell id="Fw4iVVHJRfLlpQ4vOzXV-47" style="edgeStyle=orthogonalEdgeStyle;rounded=0;orthogonalLoop=1;jettySize=auto;html=1;exitX=0.5;exitY=1;exitDx=0;exitDy=0;entryX=0.5;entryY=0;entryDx=0;entryDy=0;" parent="1" source="Fw4iVVHJRfLlpQ4vOzXV-8" target="Fw4iVVHJRfLlpQ4vOzXV-18" edge="1">
                    <mxGeometry relative="1" as="geometry"/>
                </mxCell>
                <mxCell id="Fw4iVVHJRfLlpQ4vOzXV-52" style="edgeStyle=orthogonalEdgeStyle;rounded=0;orthogonalLoop=1;jettySize=auto;html=1;exitX=0.5;exitY=1;exitDx=0;exitDy=0;entryX=0.006;entryY=0.801;entryDx=0;entryDy=0;entryPerimeter=0;" parent="1" source="Fw4iVVHJRfLlpQ4vOzXV-6" target="Fw4iVVHJRfLlpQ4vOzXV-19" edge="1">
                    <mxGeometry relative="1" as="geometry"/>
                </mxCell>
                <mxCell id="Fw4iVVHJRfLlpQ4vOzXV-53" style="edgeStyle=orthogonalEdgeStyle;rounded=0;orthogonalLoop=1;jettySize=auto;html=1;exitX=0.5;exitY=1;exitDx=0;exitDy=0;entryX=0.998;entryY=0.81;entryDx=0;entryDy=0;entryPerimeter=0;" parent="1" source="Fw4iVVHJRfLlpQ4vOzXV-17" target="Fw4iVVHJRfLlpQ4vOzXV-19" edge="1">
                    <mxGeometry relative="1" as="geometry"/>
                </mxCell>
                <mxCell id="Fw4iVVHJRfLlpQ4vOzXV-54" style="edgeStyle=orthogonalEdgeStyle;rounded=0;orthogonalLoop=1;jettySize=auto;html=1;exitX=0.5;exitY=1;exitDx=0;exitDy=0;entryX=0.998;entryY=0.652;entryDx=0;entryDy=0;entryPerimeter=0;" parent="1" source="Fw4iVVHJRfLlpQ4vOzXV-15" target="Fw4iVVHJRfLlpQ4vOzXV-19" edge="1">
                    <mxGeometry relative="1" as="geometry"/>
                </mxCell>
                <mxCell id="Fw4iVVHJRfLlpQ4vOzXV-55" style="edgeStyle=orthogonalEdgeStyle;rounded=0;orthogonalLoop=1;jettySize=auto;html=1;exitX=0.5;exitY=1;exitDx=0;exitDy=0;entryX=0;entryY=0.654;entryDx=0;entryDy=0;entryPerimeter=0;" parent="1" source="Fw4iVVHJRfLlpQ4vOzXV-4" target="Fw4iVVHJRfLlpQ4vOzXV-19" edge="1">
                    <mxGeometry relative="1" as="geometry"/>
                </mxCell>
                <mxCell id="MCywyoQNHAXix00B3p6v-8" style="edgeStyle=orthogonalEdgeStyle;rounded=0;orthogonalLoop=1;jettySize=auto;html=1;exitX=0.5;exitY=0;exitDx=0;exitDy=0;entryX=1;entryY=0.5;entryDx=0;entryDy=0;" parent="1" source="MCywyoQNHAXix00B3p6v-1" target="Fw4iVVHJRfLlpQ4vOzXV-21" edge="1">
                    <mxGeometry relative="1" as="geometry"/>
                </mxCell>
                <mxCell id="MCywyoQNHAXix00B3p6v-1" value="dim_date" style="swimlane;childLayout=stackLayout;horizontal=1;startSize=30;horizontalStack=0;rounded=1;fontSize=14;fontStyle=0;strokeWidth=2;resizeParent=0;resizeLast=1;shadow=0;dashed=0;align=center;fillColor=#f8cecc;strokeColor=#b85450;" parent="1" vertex="1">
                    <mxGeometry x="870" y="220" width="160" height="130" as="geometry"/>
                </mxCell>
                <mxCell id="MCywyoQNHAXix00B3p6v-2" value="-dateID&#10;-date" style="align=left;strokeColor=none;fillColor=none;spacingLeft=4;fontSize=12;verticalAlign=top;resizable=0;rotatable=0;part=1;" parent="MCywyoQNHAXix00B3p6v-1" vertex="1">
                    <mxGeometry y="30" width="160" height="100" as="geometry"/>
                </mxCell>
                <mxCell id="MCywyoQNHAXix00B3p6v-3" value="dim_ratings" style="swimlane;childLayout=stackLayout;horizontal=1;startSize=30;horizontalStack=0;rounded=1;fontSize=14;fontStyle=0;strokeWidth=2;resizeParent=0;resizeLast=1;shadow=0;dashed=0;align=center;fillColor=#f8cecc;strokeColor=#b85450;" parent="1" vertex="1">
                    <mxGeometry x="-130" y="430" width="160" height="130" as="geometry"/>
                </mxCell>
                <mxCell id="MCywyoQNHAXix00B3p6v-4" value="-ratingID&#10;-shops&#10;-faciliteiten&#10;-operatie" style="align=left;strokeColor=none;fillColor=none;spacingLeft=4;fontSize=12;verticalAlign=top;resizable=0;rotatable=0;part=1;" parent="MCywyoQNHAXix00B3p6v-3" vertex="1">
                    <mxGeometry y="30" width="160" height="100" as="geometry"/>
                </mxCell>
                <mxCell id="MCywyoQNHAXix00B3p6v-10" style="edgeStyle=orthogonalEdgeStyle;rounded=0;orthogonalLoop=1;jettySize=auto;html=1;exitX=0.5;exitY=1;exitDx=0;exitDy=0;entryX=1;entryY=0.908;entryDx=0;entryDy=0;entryPerimeter=0;" parent="1" source="MCywyoQNHAXix00B3p6v-2" target="Fw4iVVHJRfLlpQ4vOzXV-19" edge="1">
                    <mxGeometry relative="1" as="geometry"/>
                </mxCell>
                <mxCell id="MCywyoQNHAXix00B3p6v-11" style="edgeStyle=orthogonalEdgeStyle;rounded=0;orthogonalLoop=1;jettySize=auto;html=1;exitX=0;exitY=0.5;exitDx=0;exitDy=0;entryX=1;entryY=0.5;entryDx=0;entryDy=0;" parent="1" source="MCywyoQNHAXix00B3p6v-2" target="Fw4iVVHJRfLlpQ4vOzXV-17" edge="1">
                    <mxGeometry relative="1" as="geometry"/>
                </mxCell>
                <mxCell id="2" style="edgeStyle=none;html=1;exitX=1;exitY=0.5;exitDx=0;exitDy=0;entryX=0;entryY=0.308;entryDx=0;entryDy=0;entryPerimeter=0;" parent="1" source="MCywyoQNHAXix00B3p6v-4" target="Fw4iVVHJRfLlpQ4vOzXV-19" edge="1">
                    <mxGeometry relative="1" as="geometry"/>
                </mxCell>
            </root>
        </mxGraphModel>
    </diagram>
</mxfile>
